Coordinates
version=1
nRows=9
nColumns=24
inDegrees=yes

Units are S.I. units (second, meters, Newtons, ...)
Angles are in degrees.

endheader
time	pelvis_tilt	pelvis_list	pelvis_rotation	pelvis_tx	pelvis_ty	pelvis_tz	hip_flexion_r	hip_adduction_r	hip_rotation_r	knee_angle_r	ankle_angle_r	subtalar_angle_r	mtp_angle_r	hip_flexion_l	hip_adduction_l	hip_rotation_l	knee_angle_l	ankle_angle_l	subtalar_angle_l	mtp_angle_l	lumbar_extension	lumbar_bending	lumbar_rotation
      0.52900000	     -7.99458410	      1.86644148	     -2.84119947	     -0.77955023	      1.03877232	      0.29249044	     33.12203830	     -0.09097369	     -3.31214230	     -9.82693713	      6.73449239	      1.58245151	     11.91194326	     -4.29052357	      3.36749554	     -0.93438289	     -9.79168000	     20.54655940	      8.29975198	      3.81943294	     -3.54360851	     -1.87994808	     -3.11510245
      0.53316667	     -7.94053282	      1.84448001	     -2.77492938	     -0.77329831	      1.03792732	      0.29279897	     33.04973841	     -0.02108306	     -3.10804234	     -9.96797753	      6.69213532	      1.39858466	     11.91917633	     -4.40877766	      3.31978689	     -1.02765199	    -10.46108819	     20.74408026	      8.53453245	      3.87182339	     -3.57277336	     -1.85517175	     -2.92372775
      0.53733333	     -7.87381097	      1.80610389	     -2.69195627	     -0.76701137	      1.03716240	      0.29309008	     32.95061363	      0.05649662	     -2.89097097	    -10.16601644	      6.60088385	      1.13053267	     11.92950842	     -4.50548188	      3.24360384	     -1.16653566	    -11.20619981	     20.93829774	      8.85812768	      3.96338426	     -3.61439159	     -1.75933105	     -3.00567901
      0.54150000	     -7.79907834	      1.77085408	     -2.61708800	     -0.76072974	      1.03643571	      0.29340046	     32.85423006	      0.13525423	     -2.66284418	    -10.45244881	      6.48059362	      0.82104629	     11.94267603	     -4.57281286	      3.16358626	     -1.35144885	    -12.03040842	     21.12933644	      9.23091922	      4.09918781	     -3.65659316	     -1.67969345	     -3.00255671
      0.54566667	     -7.71094869	      1.72154740	     -2.53790713	     -0.75440916	      1.03577555	      0.29370660	     32.73624227	      0.22449113	     -2.42610681	    -10.79540328	      6.32222591	      0.46918681	     11.95717776	     -4.63274747	      3.06151741	     -1.54374169	    -12.90880269	     21.28429560	      9.62755416	      4.26588389	     -3.71375516	     -1.57744680	     -3.01895059
      0.54983333	     -7.65032277	      1.67355961	     -2.46590209	     -0.74806265	      1.03509563	      0.29403568	     32.65488580	      0.31819328	     -2.17760063	    -11.21105211	      6.11725811	      0.07105950	     11.97503594	     -4.62524124	      2.94766413	     -1.79900864	    -13.86603724	     21.42689525	     10.10202931	      4.48394427	     -3.73095152	     -1.46830307	     -3.01931752
      0.55400000	     -7.55295968	      1.61199865	     -2.38913091	     -0.74170949	      1.03452904	      0.29437016	     32.52623479	      0.42152208	     -1.92206820	    -11.66465018	      5.87658728	     -0.36112203	     11.99263240	     -4.62014497	      2.80833373	     -2.07980841	    -14.89950297	     21.53600397	     10.61363880	      4.74159446	     -3.79992503	     -1.34816717	     -3.01815962
      0.55816667	     -7.48946683	      1.55867290	     -2.31901973	     -0.73533282	      1.03393578	      0.29472966	     32.44380935	      0.52159537	     -1.67050056	    -12.18284818	      5.60286337	     -0.81480602	     12.01003406	     -4.54676818	      2.66454143	     -2.39447964	    -16.00004611	     21.60745840	     11.16052527	      5.04668798	     -3.81294077	     -1.22989329	     -3.00850056
      0.56233333	     -7.37835643	      1.48769080	     -2.25066517	     -0.72895465	      1.03346228	      0.29510544	     32.30470812	      0.63758000	     -1.41800515	    -12.73031859	      5.29456791	     -1.30069629	     12.02335747	     -4.48976976	      2.48705159	     -2.76122745	    -17.17340011	     21.65143250	     11.76823086	      5.39161953	     -3.88685699	     -1.09762380	     -2.99229232
